<mxfile host="app.diagrams.net" modified="2022-07-20T02:11:50.038Z" agent="5.0 (Windows NT 10.0; Win64; x64) AppleWebKit/537.36 (KHTML, like Gecko) Chrome/94.0.4606.61 Safari/537.36" etag="zzVdCTFYsC2wgRNmw3qt" version="17.1.1" type="github">
  <diagram id="C5RBs43oDa-KdzZeNtuy" name="Page-1">
    <mxGraphModel dx="2012" dy="635" grid="1" gridSize="10" guides="1" tooltips="1" connect="1" arrows="1" fold="1" page="1" pageScale="1" pageWidth="827" pageHeight="1169" math="0" shadow="0">
      <root>
        <mxCell id="WIyWlLk6GJQsqaUBKTNV-0" />
        <mxCell id="WIyWlLk6GJQsqaUBKTNV-1" parent="WIyWlLk6GJQsqaUBKTNV-0" />
        <mxCell id="WIyWlLk6GJQsqaUBKTNV-2" value="" style="rounded=0;html=1;jettySize=auto;orthogonalLoop=1;fontSize=11;endArrow=block;endFill=0;endSize=8;strokeWidth=1;shadow=0;labelBackgroundColor=none;edgeStyle=orthogonalEdgeStyle;" parent="WIyWlLk6GJQsqaUBKTNV-1" source="WIyWlLk6GJQsqaUBKTNV-3" edge="1">
          <mxGeometry relative="1" as="geometry">
            <mxPoint x="220" y="170" as="targetPoint" />
          </mxGeometry>
        </mxCell>
        <mxCell id="WIyWlLk6GJQsqaUBKTNV-3" value="强制修正逻辑" style="rounded=1;whiteSpace=wrap;html=1;fontSize=12;glass=0;strokeWidth=1;shadow=0;" parent="WIyWlLk6GJQsqaUBKTNV-1" vertex="1">
          <mxGeometry x="160" y="80" width="120" height="40" as="geometry" />
        </mxCell>
        <mxCell id="WIyWlLk6GJQsqaUBKTNV-4" value="Yes" style="rounded=0;html=1;jettySize=auto;orthogonalLoop=1;fontSize=11;endArrow=block;endFill=0;endSize=8;strokeWidth=1;shadow=0;labelBackgroundColor=none;edgeStyle=orthogonalEdgeStyle;" parent="WIyWlLk6GJQsqaUBKTNV-1" edge="1">
          <mxGeometry y="20" relative="1" as="geometry">
            <mxPoint as="offset" />
            <mxPoint x="220" y="250" as="sourcePoint" />
            <mxPoint x="220" y="290" as="targetPoint" />
          </mxGeometry>
        </mxCell>
        <mxCell id="WIyWlLk6GJQsqaUBKTNV-8" value="" style="rounded=0;html=1;jettySize=auto;orthogonalLoop=1;fontSize=11;endArrow=block;endFill=0;endSize=8;strokeWidth=1;shadow=0;labelBackgroundColor=none;edgeStyle=orthogonalEdgeStyle;" parent="WIyWlLk6GJQsqaUBKTNV-1" edge="1">
          <mxGeometry x="0.3333" y="20" relative="1" as="geometry">
            <mxPoint as="offset" />
            <mxPoint x="219.71" y="350" as="sourcePoint" />
            <mxPoint x="219.71" y="410" as="targetPoint" />
          </mxGeometry>
        </mxCell>
        <mxCell id="9Tid-Hz9NfJKpIZ19I31-0" value="&lt;span&gt;	&lt;/span&gt;float ElapsedTime = tf_CurWorldTime - VehicleOwner-&amp;gt;LastReplicatePhysicsStateTime;&amp;nbsp; //距离上一次收到同步消息的时间差&lt;br&gt;&lt;span&gt;	&lt;/span&gt;bool bForceStopSimulate = ElapsedTime &amp;gt;= MaxDeltaTimeSinceLastPhysicStateAtClient; //是否需要停止物理模拟" style="text;html=1;strokeColor=none;fillColor=none;align=center;verticalAlign=middle;whiteSpace=wrap;rounded=0;" vertex="1" parent="WIyWlLk6GJQsqaUBKTNV-1">
          <mxGeometry x="330" y="10" width="940" height="30" as="geometry" />
        </mxCell>
        <mxCell id="9Tid-Hz9NfJKpIZ19I31-1" value="mf_LastStaticForceFixTime 上一次强制修正的时间" style="text;html=1;strokeColor=none;fillColor=none;align=center;verticalAlign=middle;whiteSpace=wrap;rounded=0;" vertex="1" parent="WIyWlLk6GJQsqaUBKTNV-1">
          <mxGeometry x="40" y="40" width="390" height="30" as="geometry" />
        </mxCell>
        <mxCell id="9Tid-Hz9NfJKpIZ19I31-2" value="&amp;nbsp;mf_LastStaticForceFixTime &amp;lt; VehicleOwner-&amp;gt;LastReplicatePhysicsStateTime 当前周期强制同步了一次&lt;br&gt;ElapsedTime &amp;gt; IdleForceUpdateThreshold(默认是3s); 超过上次同步时间3秒&lt;br&gt;VehicleOwner-&amp;gt;ReplicatedMovement.bSimulatedPhysicSleep DS端已经Sleep了&lt;br&gt;tfv_Location.Equals(VehicleOwner-&amp;gt;ReplicatedMovement.Location, StaticFixLocation) /当前距离超过StaticFixLocation" style="text;html=1;strokeColor=none;fillColor=none;align=center;verticalAlign=middle;whiteSpace=wrap;rounded=0;" vertex="1" parent="WIyWlLk6GJQsqaUBKTNV-1">
          <mxGeometry x="-150" y="160" width="740" height="80" as="geometry" />
        </mxCell>
        <mxCell id="9Tid-Hz9NfJKpIZ19I31-4" value="强制设置DS Location、Rotation、LinearVelocity、AngularVelocity" style="text;html=1;strokeColor=none;fillColor=none;align=center;verticalAlign=middle;whiteSpace=wrap;rounded=0;" vertex="1" parent="WIyWlLk6GJQsqaUBKTNV-1">
          <mxGeometry x="10" y="300" width="440" height="30" as="geometry" />
        </mxCell>
        <mxCell id="9Tid-Hz9NfJKpIZ19I31-5" value="&lt;div&gt;&amp;nbsp; &amp;nbsp; &amp;nbsp; &amp;nbsp;/**&lt;span&gt;	&lt;/span&gt;&amp;lt;设置时间标志 */&lt;/div&gt;&lt;div&gt;&amp;nbsp; &amp;nbsp; &amp;nbsp; &amp;nbsp; &amp;nbsp; &amp;nbsp; &amp;nbsp; &amp;nbsp; &amp;nbsp; &amp;nbsp; mf_LastStaticForceFixTime = tf_CurWorldTime;&lt;/div&gt;" style="text;html=1;strokeColor=none;fillColor=none;align=center;verticalAlign=middle;whiteSpace=wrap;rounded=0;" vertex="1" parent="WIyWlLk6GJQsqaUBKTNV-1">
          <mxGeometry y="420" width="420" height="30" as="geometry" />
        </mxCell>
        <mxCell id="9Tid-Hz9NfJKpIZ19I31-6" value="&lt;font color=&quot;#ff0000&quot;&gt;TIPS:这部分强制修正逻辑在DS位置不变，不同步客户端位置之后执行一次，&lt;/font&gt;" style="text;html=1;strokeColor=none;fillColor=none;align=center;verticalAlign=middle;whiteSpace=wrap;rounded=0;" vertex="1" parent="WIyWlLk6GJQsqaUBKTNV-1">
          <mxGeometry x="-40" y="470" width="570" height="30" as="geometry" />
        </mxCell>
      </root>
    </mxGraphModel>
  </diagram>
</mxfile>
